{"title":"Baas In Eigen Bos 3 - DVDrip [AC3 5.1 NL Gesproken]","uid":6075024,"size":1047105930,"categoryP":"video","categoryS":"movies","magnet":"?xt=urn:btih:e69369d05658b040e77772e3814b9dad2419666d&amp;dn=Baas+In+Eigen+Bos+3+-+DVDrip+%5BAC3+5.1+NL+Gesproken%5D&amp;tr=udp%3A%2F%2Ftracker.openbittorrent.com%3A80&amp;tr=udp%3A%2F%2Fopen.demonii.com%3A1337&amp;tr=udp%3A%2F%2Ftracker.coppersurfer.tk%3A6969&amp;tr=udp%3A%2F%2Fexodus.desync.com%3A6969","seeders":1,"leechers":0,"uploader":"Filmofiel","files":1,"time":1293790944,"description":"Verenigde Staten\nAnimatie\n75 minuten\n\ngeregisseerd door Cody Cameron\nmet de stemmen van Ciara Bravo, Karley Scott Collins en Cody Cameron\n\nHet nieuwe avontuur brengt Boog, Elliot en de andere dierenvrienden van het bos naar een circustent. Wanneer Boogs vrienden het jaarlijkse uitstapje van de jongens afzeggen om tijd door te brengen met hun familie, besluit de teleurgestelde beer zelf op pad te gaan. Hij verwisselt van plaats met een grizzly die op hem lijkt en zo belandt hij midden in de ring van een groot circus. Daar valt hij als een blok voor een verleidelijke, Russische artieste, maar langzaamaan beseft Boog dat je misschien niet hoeft te kiezen tussen familie en vriendschap.\n\nTorrent Info:\n\nGeneral\n\\Bureaublad\\Baas In Eigen Bos 3 (Open Season 3) - DVDrip [AC-3 5.1 NL Gesproken] (Animatie, Komedie 201 XviD).avi\nFormat                           : AVI\nFormat/Info                      : Audio Video Interleave\nFile size                        : 999 MiB\nDuration                         : 1h 11mn\nOverall bit rate                 : 1 951 Kbps\nMovie name                       : DVD_VOLUME.Title1.DVDRip\nDirector                         : Ik\nWriting application              : Lavf51.19.0\nOriginal source form/Name        : DVD_VOLUME\n\nVideo\nID                               : 0\nFormat                           : MPEG-4 Visual\nFormat profile                   : Simple@L3\nFormat settings, BVOP            : No\nFormat settings, QPel            : No\nFormat settings, GMC             : No warppoints\nFormat settings, Matrix          : Default (H.263)\nCodec ID                         : XVID\nCodec ID/Hint                    : XviD\nDuration                         : 1h 11mn\nBit rate                         : 1 556 Kbps\nWidth                            : 1 024 pixels\nHeight                           : 576 pixels\nDisplay aspect ratio             : 16:9\nFrame rate                       : 25.000 fps\nColor space                      : YUV\nChroma subsampling               : 4:2:0\nBit depth                        : 8 bits\nScan type                        : Progressive\nCompression mode                 : Lossy\nBits/(Pixel*Frame)               : 0.106\nStream size                      : 796 MiB (80%)\nWriting library                  : XviD 1.1.2 (UTC 2006-11-01)\n\nAudio\nID                               : 1\nFormat                           : AC-3\nFormat/Info                      : Audio Coding 3\nMode extension                   : CM (complete main)\nCodec ID                         : 2000\nDuration                         : 1h 11mn\nBit rate mode                    : Constant\nBit rate                         : 384 Kbps\nChannel(s)                       : 6 channels\nChannel positions                : Front: L C R, Side: L R, LFE\nSampling rate                    : 48.0 KHz\nBit depth                        : 16 bits\nCompression mode                 : Lossy\nStream size                      : 197 MiB (20%)\nAlignment                        : Aligned on interleaves\nInterleave, duration             : 32 ms (0.80 video frame)\nInterleave, preload duration     : 32 ms\n\nMoviemeter: http://www.moviemeter.nl/film/71838\\\nImdB: http://www.imdb.com/title/tt1646926/","torrent":{"xt":"urn:btih:e69369d05658b040e77772e3814b9dad2419666d","amp;dn":"Baas+In+Eigen+Bos+3+-+DVDrip+%5BAC3+5.1+NL+Gesproken%5D","amp;tr":["udp%3A%2F%2Ftracker.openbittorrent.com%3A80","udp%3A%2F%2Fopen.demonii.com%3A1337","udp%3A%2F%2Ftracker.coppersurfer.tk%3A6969","udp%3A%2F%2Fexodus.desync.com%3A6969"],"infoHash":"e69369d05658b040e77772e3814b9dad2419666d","infoHashBuffer":{"type":"Buffer","data":[230,147,105,208,86,88,176,64,231,119,114,227,129,75,157,173,36,25,102,109]},"announce":[],"urlList":[]}}